<?xml version="1.0" standalone="no"?>
<!DOCTYPE svg PUBLIC "-//W3C//DTD SVG 20010904//EN"
 "http://www.w3.org/TR/2001/REC-SVG-20010904/DTD/svg10.dtd">
<svg version="1.0" xmlns="http://www.w3.org/2000/svg"
 width="512.000000pt" height="512.000000pt" viewBox="0 0 512.000000 512.000000"
 preserveAspectRatio="xMidYMid meet">
<metadata>
Created by potrace 1.14, written by Peter Selinger 2001-2017
</metadata>
<g transform="translate(0.000000,512.000000) scale(0.100000,-0.100000)"
fill="#000000" stroke="none">
<path d="M2080 4325 c0 -16 84 -391 114 -512 20 -78 36 -146 36 -151 0 -4 -42
3 -92 17 l-93 25 -657 4 -656 3 -66 -271 c-36 -149 -66 -279 -66 -290 0 -18 7
-20 65 -20 50 0 65 -3 65 -15 0 -8 -95 -391 -211 -851 -115 -460 -208 -843
-205 -851 9 -23 1103 -13 1226 11 181 36 328 93 459 180 85 57 196 173 247
258 31 52 60 81 139 143 55 43 128 102 163 132 34 30 62 50 62 44 0 -5 -25
-110 -55 -232 -59 -240 -66 -308 -40 -398 43 -144 202 -205 378 -145 51 17
152 102 176 148 8 14 17 26 21 26 4 0 40 -34 81 -75 94 -95 114 -102 330 -111
141 -6 178 -4 238 11 39 9 73 21 76 25 3 5 -31 68 -75 142 -44 73 -80 141 -80
151 0 9 -4 17 -10 17 -5 0 -21 22 -34 48 l-25 48 84 335 c47 184 85 340 85
347 0 9 -47 12 -204 12 l-205 0 -12 -55 c-7 -31 -16 -58 -19 -60 -4 -3 -21 30
-38 73 -29 72 -30 78 -14 90 9 7 77 50 149 95 328 203 554 390 764 633 123
143 154 234 110 329 -46 99 -213 199 -443 264 l-73 21 -15 -22 c-54 -81 -184
-257 -248 -338 -134 -167 -405 -442 -431 -438 -23 5 -88 264 -166 663 -41 209
-63 264 -127 320 -84 72 -318 162 -527 204 -98 20 -181 27 -181 16z m-347
-1204 c27 -4 60 -17 74 -28 90 -66 91 -139 9 -470 l-58 -232 -104 -50 c-128
-63 -158 -99 -158 -191 0 -37 6 -67 17 -83 9 -15 17 -31 17 -36 0 -22 -84 -31
-243 -29 l-164 3 114 460 c62 253 122 501 133 550 11 50 22 96 25 103 5 14
256 16 338 3z m1232 -1351 c7 -22 6 -23 -9 -11 -9 7 -16 25 -16 40 1 29 11 17
25 -29z"/>
<path d="M4143 2693 l-39 -158 -82 -3 -81 -3 -10 -37 c-54 -208 -81 -318 -81
-329 0 -10 21 -13 79 -13 l79 0 -41 -157 c-35 -134 -41 -174 -41 -264 -1 -98
1 -109 29 -164 63 -123 179 -165 456 -165 97 0 139 4 146 13 6 6 30 94 55 194
l45 182 -139 3 c-191 4 -192 5 -136 229 l32 129 167 0 167 0 46 185 c25 101
46 187 46 190 0 3 -71 5 -158 5 -87 0 -161 2 -164 5 -3 3 12 72 33 153 22 81
39 150 39 155 0 4 -92 7 -204 7 l-204 0 -39 -157z"/>
</g>
</svg>
